<svg width="26" height="27" viewBox="0 0 26 27" fill="none" xmlns="http://www.w3.org/2000/svg">
<path opacity="0.2" d="M21.003 4.69672H17.8018C17.3598 4.69672 17.0015 5.05502 17.0015 5.49702V8.69824C17.0015 9.14024 17.3598 9.49855 17.8018 9.49855H21.003C21.445 9.49855 21.8033 9.14024 21.8033 8.69824V5.49702C21.8033 5.05502 21.445 4.69672 21.003 4.69672Z" fill="#009379"/>
<path opacity="0.2" d="M4.99684 4.74197H8.19806C8.61506 4.74197 8.95311 5.08002 8.95311 5.49702V8.69824C8.95311 9.11524 8.61506 9.45329 8.19806 9.45329H4.99684C4.57984 9.45329 4.24179 9.11524 4.24179 8.69824V5.49702C4.24179 5.08002 4.57984 4.74197 4.99684 4.74197Z" fill="#009379" stroke="#009379" stroke-width="0.0905107"/>
<path opacity="0.2" d="M17.8018 17.5467H21.003C21.42 17.5467 21.758 17.8848 21.758 18.3018V21.503C21.758 21.92 21.42 22.258 21.003 22.258H17.8018C17.3848 22.258 17.0467 21.92 17.0467 21.503V18.3018C17.0467 17.8848 17.3848 17.5467 17.8018 17.5467Z" fill="#009379" stroke="#009379" stroke-width="0.0905107"/>
<path opacity="0.2" d="M4.99684 17.5467H8.19806C8.61506 17.5467 8.95311 17.8848 8.95311 18.3018V21.503C8.95311 21.92 8.61506 22.258 8.19806 22.258H4.99684C4.57984 22.258 4.24179 21.92 4.24179 21.503V18.3018C4.24179 17.8848 4.57984 17.5467 4.99684 17.5467Z" fill="#009379" stroke="#009379" stroke-width="0.0905107"/>
<path d="M21.003 4.69672H17.8018C17.3598 4.69672 17.0015 5.05502 17.0015 5.49702V8.69824C17.0015 9.14024 17.3598 9.49855 17.8018 9.49855H21.003C21.445 9.49855 21.8033 9.14024 21.8033 8.69824V5.49702C21.8033 5.05502 21.445 4.69672 21.003 4.69672Z" stroke="#009379" stroke-width="1.44817" stroke-linecap="round" stroke-linejoin="round"/>
<path d="M8.19806 4.69672H4.99684C4.55484 4.69672 4.19653 5.05502 4.19653 5.49702V8.69824C4.19653 9.14024 4.55484 9.49855 4.99684 9.49855H8.19806C8.64005 9.49855 8.99836 9.14024 8.99836 8.69824V5.49702C8.99836 5.05502 8.64005 4.69672 8.19806 4.69672Z" stroke="#009379" stroke-width="1.44817" stroke-linecap="round" stroke-linejoin="round"/>
<path d="M21.003 17.5015H17.8018C17.3598 17.5015 17.0015 17.8598 17.0015 18.3018V21.503C17.0015 21.945 17.3598 22.3033 17.8018 22.3033H21.003C21.445 22.3033 21.8033 21.945 21.8033 21.503V18.3018C21.8033 17.8598 21.445 17.5015 21.003 17.5015Z" stroke="#009379" stroke-width="1.44817" stroke-linecap="round" stroke-linejoin="round"/>
<path d="M8.19806 17.5015H4.99684C4.55484 17.5015 4.19653 17.8598 4.19653 18.3018V21.503C4.19653 21.945 4.55484 22.3033 4.99684 22.3033H8.19806C8.64005 22.3033 8.99836 21.945 8.99836 21.503V18.3018C8.99836 17.8598 8.64005 17.5015 8.19806 17.5015Z" stroke="#009379" stroke-width="1.44817" stroke-linecap="round" stroke-linejoin="round"/>
<path d="M6.59741 17.5016V9.49854" stroke="#009379" stroke-width="1.44817" stroke-linecap="round" stroke-linejoin="round"/>
<path d="M17.0016 19.9025H8.99854" stroke="#009379" stroke-width="1.44817" stroke-linecap="round" stroke-linejoin="round"/>
<path d="M19.4023 9.49854V17.5016" stroke="#009379" stroke-width="1.44817" stroke-linecap="round" stroke-linejoin="round"/>
<path d="M8.99854 7.09753H17.0016" stroke="#009379" stroke-width="1.44817" stroke-linecap="round" stroke-linejoin="round"/>
</svg>
