<svg width="26" height="27" viewBox="0 0 26 27" fill="none" xmlns="http://www.w3.org/2000/svg">
<path opacity="0.2" d="M17.9018 7.57776C18.3597 8.41169 18.6005 9.34741 18.6021 10.2988V10.6889C18.6037 11.0503 18.4814 11.4012 18.2557 11.6834C18.03 11.9655 17.7144 12.1618 17.3616 12.2395C15.9301 12.5595 14.4666 12.7139 12.9999 12.6997C11.5332 12.7139 10.0697 12.5595 8.63826 12.2395C8.28541 12.1618 7.96984 11.9655 7.74413 11.6834C7.51842 11.4012 7.39618 11.0503 7.39779 10.6889V10.3788C7.39837 9.39686 7.65342 8.4318 8.13807 7.57776C4.38664 8.34805 1.79565 9.99868 1.79565 11.8994C1.79565 14.5504 6.80756 16.7012 12.9999 16.7012C19.1923 16.7012 24.2042 14.5504 24.2042 11.8994C24.2042 9.99868 21.6332 8.35806 17.9018 7.57776Z" fill="#009379"/>
<path d="M17.0815 19.5723L17.4717 21.9332" stroke="#009379" stroke-width="1.44817" stroke-linecap="round" stroke-linejoin="round"/>
<path d="M13 19.9025V23.1037" stroke="#009379" stroke-width="1.44817" stroke-linecap="round" stroke-linejoin="round"/>
<path d="M8.91847 19.5723L8.52832 21.9332" stroke="#009379" stroke-width="1.44817" stroke-linecap="round" stroke-linejoin="round"/>
<path d="M17.9018 7.57776C21.6332 8.35806 24.2042 9.99868 24.2042 11.8994C24.2042 14.5504 19.1923 16.7012 12.9999 16.7012C6.80756 16.7012 1.79565 14.5504 1.79565 11.8994C1.79565 9.99868 4.38664 8.34805 8.13807 7.57776" stroke="#009379" stroke-width="1.44817" stroke-linecap="round" stroke-linejoin="round"/>
<path d="M7.39772 10.6889C7.39612 11.0503 7.51835 11.4012 7.74406 11.6834C7.96978 11.9655 8.28534 12.1618 8.63819 12.2395C10.0697 12.5595 11.5331 12.7139 12.9999 12.6997C14.4666 12.7139 15.9301 12.5595 17.3615 12.2395C17.7144 12.1618 18.0299 11.9655 18.2556 11.6834C18.4814 11.4012 18.6036 11.0503 18.602 10.6889V10.2988C18.602 9.55719 18.4549 8.82294 18.169 8.13866C17.8831 7.45437 17.4641 6.83366 16.9365 6.31253C16.4088 5.7914 15.783 5.38021 15.0952 5.10283C14.4074 4.82545 13.6714 4.6874 12.9298 4.69667C9.84865 4.73668 7.39772 7.30766 7.39772 10.3788V10.6889Z" stroke="#009379" stroke-width="1.44817" stroke-linecap="round" stroke-linejoin="round"/>
</svg>
