<svg width="26" height="27" viewBox="0 0 26 27" fill="none" xmlns="http://www.w3.org/2000/svg">
<path opacity="0.2" d="M7.16776 22.5335C7.09329 22.6091 7.00452 22.6691 6.90663 22.7101C6.80874 22.7511 6.70367 22.7722 6.59754 22.7722C6.49141 22.7722 6.38634 22.7511 6.28845 22.7101C6.19055 22.6691 6.10179 22.6091 6.02732 22.5335L3.96654 20.4727C3.89092 20.3982 3.83087 20.3094 3.78988 20.2115C3.74889 20.1136 3.72778 20.0086 3.72778 19.9024C3.72778 19.7963 3.74889 19.6913 3.78988 19.5934C3.83087 19.4955 3.89092 19.4067 3.96654 19.3322L14.6006 8.69818L17.8018 11.8994L7.16776 22.5335Z" fill="#009379"/>
<path d="M21.8032 13.5V18.3018" stroke="#009379" stroke-width="1.44817" stroke-linecap="round" stroke-linejoin="round"/>
<path d="M19.4023 15.9009H24.2042" stroke="#009379" stroke-width="1.44817" stroke-linecap="round" stroke-linejoin="round"/>
<path d="M8.59814 4.69672V8.69824" stroke="#009379" stroke-width="1.44817" stroke-linecap="round" stroke-linejoin="round"/>
<path d="M6.59741 6.69739H10.5989" stroke="#009379" stroke-width="1.44817" stroke-linecap="round" stroke-linejoin="round"/>
<path d="M17.0015 19.1021V22.3033" stroke="#009379" stroke-width="1.44817" stroke-linecap="round" stroke-linejoin="round"/>
<path d="M15.4009 20.7028H18.6021" stroke="#009379" stroke-width="1.44817" stroke-linecap="round" stroke-linejoin="round"/>
<path d="M18.8449 4.45977L3.96873 19.3359C3.65619 19.6484 3.65619 20.1552 3.96873 20.4677L6.03781 22.5368C6.35035 22.8493 6.85707 22.8493 7.16961 22.5368L22.0457 7.66065C22.3583 7.34811 22.3583 6.84139 22.0457 6.52885L19.9767 4.45977C19.6641 4.14723 19.1574 4.14723 18.8449 4.45977Z" stroke="#009379" stroke-width="1.44817" stroke-linecap="round" stroke-linejoin="round"/>
<path d="M14.6006 8.69818L17.8018 11.8994" stroke="#009379" stroke-width="1.44817" stroke-linecap="round" stroke-linejoin="round"/>
</svg>
