<svg width="26" height="27" viewBox="0 0 26 27" fill="none" xmlns="http://www.w3.org/2000/svg">
<path opacity="0.2" d="M3.50629 8.15802C3.43379 8.28253 3.39581 8.42411 3.39624 8.56818V18.4319C3.39701 18.5744 3.43533 18.7142 3.50734 18.8371C3.57935 18.9601 3.6825 19.0618 3.8064 19.1322L12.6098 24.0841C12.7284 24.1519 12.8632 24.1865 12.9999 24.1841L13.0899 13.5001L3.50629 8.15802Z" fill="#009379"/>
<path d="M22.6036 18.432V8.56822C22.6028 8.42574 22.5645 8.28598 22.4925 8.16304C22.4205 8.04009 22.3173 7.93831 22.1934 7.86795L13.39 2.91606C13.2714 2.84758 13.1369 2.81152 12.9999 2.81152C12.8629 2.81152 12.7284 2.84758 12.6097 2.91606L3.8064 7.86795C3.6825 7.93831 3.57935 8.04009 3.50734 8.16304C3.43533 8.28598 3.39701 8.42574 3.39624 8.56822V18.432C3.39701 18.5745 3.43533 18.7142 3.50734 18.8372C3.57935 18.9601 3.6825 19.0619 3.8064 19.1322L12.6097 24.0841C12.7284 24.1526 12.8629 24.1887 12.9999 24.1887C13.1369 24.1887 13.2714 24.1526 13.39 24.0841L22.1934 19.1322C22.3173 19.0619 22.4205 18.9601 22.4925 18.8372C22.5645 18.7142 22.6028 18.5745 22.6036 18.432V18.432Z" stroke="#009379" stroke-width="1.44817" stroke-linecap="round" stroke-linejoin="round"/>
<path d="M17.9019 15.9509V10.749L8.19824 5.39691" stroke="#009379" stroke-width="1.44817" stroke-linecap="round" stroke-linejoin="round"/>
<path d="M22.4936 8.15802L13.09 13.5001L3.50635 8.15802" stroke="#009379" stroke-width="1.44817" stroke-linecap="round" stroke-linejoin="round"/>
<path d="M13.09 13.5001L13 24.1842" stroke="#009379" stroke-width="1.44817" stroke-linecap="round" stroke-linejoin="round"/>
</svg>
