<svg width="26" height="27" viewBox="0 0 26 27" fill="none" xmlns="http://www.w3.org/2000/svg">
<path d="M13.5077 21.1981L19.3226 24.8901C20.0725 25.3631 20.9956 24.6593 20.7763 23.794L19.0919 17.1714C19.0463 16.9879 19.0535 16.7952 19.1127 16.6155C19.1719 16.4359 19.2807 16.2767 19.4264 16.1561L24.6414 11.8065C25.3222 11.2411 24.976 10.0989 24.0876 10.0412L17.2804 9.60277C17.0947 9.59197 16.9161 9.52729 16.7666 9.41665C16.617 9.306 16.5029 9.15418 16.4382 8.97974L13.8999 2.58791C13.8327 2.4032 13.7103 2.24363 13.5493 2.13088C13.3883 2.01812 13.1966 1.95764 13 1.95764C12.8034 1.95764 12.6117 2.01812 12.4507 2.13088C12.2897 2.24363 12.1673 2.4032 12.1001 2.58791L9.56179 8.97974C9.4971 9.15418 9.383 9.306 9.23343 9.41665C9.08385 9.52729 8.90529 9.59197 8.71955 9.60277L1.91237 10.0412C1.02397 10.0989 0.677844 11.2411 1.35856 11.8065L6.57356 16.1561C6.71932 16.2767 6.82806 16.4359 6.88726 16.6155C6.94645 16.7952 6.9537 16.9879 6.90815 17.1714L5.35057 23.3094C5.08521 24.3478 6.19282 25.1901 7.08121 24.6247L12.4923 21.1981C12.6441 21.1016 12.8202 21.0503 13 21.0503C13.1798 21.0503 13.3559 21.1016 13.5077 21.1981Z" fill="#F8D57E" stroke="#F8D57E" stroke-width="2" stroke-linecap="round" stroke-linejoin="round"/>
</svg>
